<svg width="19" height="21" viewBox="0 0 19 21" fill="none" xmlns="http://www.w3.org/2000/svg">
<circle cx="9.37794" cy="6.30373" r="1.056" stroke="#342E34" stroke-width="1.056"/>
<path d="M8.4082 2.17969C8.92981 1.72612 9.68986 1.6977 10.2412 2.09473L10.3486 2.17969L17.1338 8.0791C17.4437 8.34861 17.6252 8.73336 17.6406 9.13867L17.6377 9.31348L17.0635 16.4551C17.0015 17.2228 16.36 17.8142 15.5898 17.8145H3.16699C2.44483 17.8143 1.83616 17.2943 1.71191 16.5967L1.69336 16.4551L1.11914 9.31348C1.08628 8.90414 1.22559 8.50254 1.49805 8.20215L1.62305 8.0791L8.4082 2.17969Z" stroke="#342E34" stroke-width="1.2672"/>
<line x1="4.30157" y1="17.8934" x2="4.30157" y2="19.9257" stroke="#342E34" stroke-width="1.2672" stroke-linecap="round"/>
<line x1="14.1063" y1="17.8934" x2="14.1063" y2="19.9257" stroke="#342E34" stroke-width="1.2672" stroke-linecap="round"/>
<path d="M11.8461 17.2622V12.7751C11.8461 11.6087 10.9005 10.6631 9.73407 10.6631H9.05536C7.88893 10.6631 6.94336 11.6087 6.94336 12.7751V17.2622" stroke="#342E34" stroke-width="1.2672"/>
</svg>
