<svg width="20" height="20" viewBox="0 0 20 20" fill="none" xmlns="http://www.w3.org/2000/svg">
<path d="M10.3232 19.3493C15.2808 19.3493 19.2998 15.3527 19.2998 10.4227C19.2998 5.49267 15.2808 1.49609 10.3232 1.49609C5.36561 1.49609 1.34668 5.49267 1.34668 10.4227C1.34668 15.3527 5.36561 19.3493 10.3232 19.3493Z" stroke="#342E34" stroke-width="1.2672" stroke-linecap="round" stroke-linejoin="round"/>
<path d="M2.03906 13.8585H4.45582C5.09679 13.8585 5.7115 13.6053 6.16473 13.1546C6.61796 12.7039 6.87258 12.0926 6.87258 11.4552V9.39519C6.87258 8.7578 7.1272 8.1465 7.58043 7.6958C8.03366 7.24509 8.64838 6.99188 9.28934 6.99188C9.9303 6.99188 10.545 6.73868 10.9982 6.28797C11.4515 5.83726 11.7061 5.22597 11.7061 4.58857V1.59473" stroke="#342E34" stroke-width="1.2672" stroke-linecap="round" stroke-linejoin="round"/>
<path d="M19.2967 10.2827C18.6053 9.92595 17.8384 9.73767 17.0595 9.7334H14.1179C13.477 9.7334 12.8623 9.9866 12.409 10.4373C11.9558 10.888 11.7012 11.4993 11.7012 12.1367C11.7012 12.7741 11.9558 13.3854 12.409 13.8361C12.8623 14.2868 13.477 14.54 14.1179 14.54C14.5758 14.54 15.0148 14.7209 15.3386 15.0428C15.6623 15.3648 15.8442 15.8014 15.8442 16.2567V17.4515" stroke="#342E34" stroke-width="1.2672" stroke-linecap="round" stroke-linejoin="round"/>
<path d="M9.76496 18.7887C9.91643 18.449 9.93979 18.0374 9.76465 17.6727C9.5895 17.3081 9.39582 16.787 8.99666 16.611C8.59749 16.435 8.15451 16.4011 7.76516 16.5169C7.37581 16.6326 7.07199 16.8885 6.92052 17.2282C6.81233 17.4708 6.59532 17.6535 6.31721 17.7362C6.0391 17.8189 5.72269 17.7947 5.43757 17.669L4.68936 17.339" stroke="#342E34" stroke-width="1.2672" stroke-linecap="round" stroke-linejoin="round"/>
</svg>
